<?xml version="1.0" encoding="utf-8" standalone="no"?>
<!DOCTYPE svg PUBLIC "-//W3C//DTD SVG 1.1//EN"
  "http://www.w3.org/Graphics/SVG/1.1/DTD/svg11.dtd">
<!-- Created with matplotlib (https://matplotlib.org/) -->
<svg height="345.6pt" version="1.1" viewBox="0 0 460.8 345.6" width="460.8pt" xmlns="http://www.w3.org/2000/svg" xmlns:xlink="http://www.w3.org/1999/xlink">
 <defs>
  <style type="text/css">
*{stroke-linecap:butt;stroke-linejoin:round;}
  </style>
 </defs>
 <g id="figure_1">
  <g id="patch_1">
   <path d="M 0 345.6 
L 460.8 345.6 
L 460.8 0 
L 0 0 
z
" style="fill:#ffffff;"/>
  </g>
  <g id="axes_1">
   <g id="patch_2">
    <path d="M 57.6 307.584 
L 414.72 307.584 
L 414.72 41.472 
L 57.6 41.472 
z
" style="fill:#ffffff;"/>
   </g>
   <g id="matplotlib.axis_1">
    <g id="xtick_1">
     <g id="line2d_1">
      <path clip-path="url(#p05374c4a21)" d="M 73.832727 307.584 
L 73.832727 41.472 
" style="fill:none;stroke:#b0b0b0;stroke-linecap:square;stroke-width:0.8;"/>
     </g>
     <g id="line2d_2">
      <defs>
       <path d="M 0 0 
L 0 3.5 
" id="m4155cf2127" style="stroke:#000000;stroke-width:0.8;"/>
      </defs>
      <g>
       <use style="stroke:#000000;stroke-width:0.8;" x="73.832727" xlink:href="#m4155cf2127" y="307.584"/>
      </g>
     </g>
     <g id="text_1">
      <!-- 20 -->
      <defs>
       <path d="M 19.1875 8.296875 
L 53.609375 8.296875 
L 53.609375 0 
L 7.328125 0 
L 7.328125 8.296875 
Q 12.9375 14.109375 22.625 23.890625 
Q 32.328125 33.6875 34.8125 36.53125 
Q 39.546875 41.84375 41.421875 45.53125 
Q 43.3125 49.21875 43.3125 52.78125 
Q 43.3125 58.59375 39.234375 62.25 
Q 35.15625 65.921875 28.609375 65.921875 
Q 23.96875 65.921875 18.8125 64.3125 
Q 13.671875 62.703125 7.8125 59.421875 
L 7.8125 69.390625 
Q 13.765625 71.78125 18.9375 73 
Q 24.125 74.21875 28.421875 74.21875 
Q 39.75 74.21875 46.484375 68.546875 
Q 53.21875 62.890625 53.21875 53.421875 
Q 53.21875 48.921875 51.53125 44.890625 
Q 49.859375 40.875 45.40625 35.40625 
Q 44.1875 33.984375 37.640625 27.21875 
Q 31.109375 20.453125 19.1875 8.296875 
z
" id="DejaVuSans-50"/>
       <path d="M 31.78125 66.40625 
Q 24.171875 66.40625 20.328125 58.90625 
Q 16.5 51.421875 16.5 36.375 
Q 16.5 21.390625 20.328125 13.890625 
Q 24.171875 6.390625 31.78125 6.390625 
Q 39.453125 6.390625 43.28125 13.890625 
Q 47.125 21.390625 47.125 36.375 
Q 47.125 51.421875 43.28125 58.90625 
Q 39.453125 66.40625 31.78125 66.40625 
z
M 31.78125 74.21875 
Q 44.046875 74.21875 50.515625 64.515625 
Q 56.984375 54.828125 56.984375 36.375 
Q 56.984375 17.96875 50.515625 8.265625 
Q 44.046875 -1.421875 31.78125 -1.421875 
Q 19.53125 -1.421875 13.0625 8.265625 
Q 6.59375 17.96875 6.59375 36.375 
Q 6.59375 54.828125 13.0625 64.515625 
Q 19.53125 74.21875 31.78125 74.21875 
z
" id="DejaVuSans-48"/>
      </defs>
      <g transform="translate(67.470227 322.182437)scale(0.1 -0.1)">
       <use xlink:href="#DejaVuSans-50"/>
       <use x="63.623047" xlink:href="#DejaVuSans-48"/>
      </g>
     </g>
    </g>
    <g id="xtick_2">
     <g id="line2d_3">
      <path clip-path="url(#p05374c4a21)" d="M 120.211948 307.584 
L 120.211948 41.472 
" style="fill:none;stroke:#b0b0b0;stroke-linecap:square;stroke-width:0.8;"/>
     </g>
     <g id="line2d_4">
      <g>
       <use style="stroke:#000000;stroke-width:0.8;" x="120.211948" xlink:href="#m4155cf2127" y="307.584"/>
      </g>
     </g>
     <g id="text_2">
      <!-- 21 -->
      <defs>
       <path d="M 12.40625 8.296875 
L 28.515625 8.296875 
L 28.515625 63.921875 
L 10.984375 60.40625 
L 10.984375 69.390625 
L 28.421875 72.90625 
L 38.28125 72.90625 
L 38.28125 8.296875 
L 54.390625 8.296875 
L 54.390625 0 
L 12.40625 0 
z
" id="DejaVuSans-49"/>
      </defs>
      <g transform="translate(113.849448 322.182437)scale(0.1 -0.1)">
       <use xlink:href="#DejaVuSans-50"/>
       <use x="63.623047" xlink:href="#DejaVuSans-49"/>
      </g>
     </g>
    </g>
    <g id="xtick_3">
     <g id="line2d_5">
      <path clip-path="url(#p05374c4a21)" d="M 166.591169 307.584 
L 166.591169 41.472 
" style="fill:none;stroke:#b0b0b0;stroke-linecap:square;stroke-width:0.8;"/>
     </g>
     <g id="line2d_6">
      <g>
       <use style="stroke:#000000;stroke-width:0.8;" x="166.591169" xlink:href="#m4155cf2127" y="307.584"/>
      </g>
     </g>
     <g id="text_3">
      <!-- 22 -->
      <g transform="translate(160.228669 322.182437)scale(0.1 -0.1)">
       <use xlink:href="#DejaVuSans-50"/>
       <use x="63.623047" xlink:href="#DejaVuSans-50"/>
      </g>
     </g>
    </g>
    <g id="xtick_4">
     <g id="line2d_7">
      <path clip-path="url(#p05374c4a21)" d="M 212.97039 307.584 
L 212.97039 41.472 
" style="fill:none;stroke:#b0b0b0;stroke-linecap:square;stroke-width:0.8;"/>
     </g>
     <g id="line2d_8">
      <g>
       <use style="stroke:#000000;stroke-width:0.8;" x="212.97039" xlink:href="#m4155cf2127" y="307.584"/>
      </g>
     </g>
     <g id="text_4">
      <!-- 23 -->
      <defs>
       <path d="M 40.578125 39.3125 
Q 47.65625 37.796875 51.625 33 
Q 55.609375 28.21875 55.609375 21.1875 
Q 55.609375 10.40625 48.1875 4.484375 
Q 40.765625 -1.421875 27.09375 -1.421875 
Q 22.515625 -1.421875 17.65625 -0.515625 
Q 12.796875 0.390625 7.625 2.203125 
L 7.625 11.71875 
Q 11.71875 9.328125 16.59375 8.109375 
Q 21.484375 6.890625 26.8125 6.890625 
Q 36.078125 6.890625 40.9375 10.546875 
Q 45.796875 14.203125 45.796875 21.1875 
Q 45.796875 27.640625 41.28125 31.265625 
Q 36.765625 34.90625 28.71875 34.90625 
L 20.21875 34.90625 
L 20.21875 43.015625 
L 29.109375 43.015625 
Q 36.375 43.015625 40.234375 45.921875 
Q 44.09375 48.828125 44.09375 54.296875 
Q 44.09375 59.90625 40.109375 62.90625 
Q 36.140625 65.921875 28.71875 65.921875 
Q 24.65625 65.921875 20.015625 65.03125 
Q 15.375 64.15625 9.8125 62.3125 
L 9.8125 71.09375 
Q 15.4375 72.65625 20.34375 73.4375 
Q 25.25 74.21875 29.59375 74.21875 
Q 40.828125 74.21875 47.359375 69.109375 
Q 53.90625 64.015625 53.90625 55.328125 
Q 53.90625 49.265625 50.4375 45.09375 
Q 46.96875 40.921875 40.578125 39.3125 
z
" id="DejaVuSans-51"/>
      </defs>
      <g transform="translate(206.60789 322.182437)scale(0.1 -0.1)">
       <use xlink:href="#DejaVuSans-50"/>
       <use x="63.623047" xlink:href="#DejaVuSans-51"/>
      </g>
     </g>
    </g>
    <g id="xtick_5">
     <g id="line2d_9">
      <path clip-path="url(#p05374c4a21)" d="M 259.34961 307.584 
L 259.34961 41.472 
" style="fill:none;stroke:#b0b0b0;stroke-linecap:square;stroke-width:0.8;"/>
     </g>
     <g id="line2d_10">
      <g>
       <use style="stroke:#000000;stroke-width:0.8;" x="259.34961" xlink:href="#m4155cf2127" y="307.584"/>
      </g>
     </g>
     <g id="text_5">
      <!-- 24 -->
      <defs>
       <path d="M 37.796875 64.3125 
L 12.890625 25.390625 
L 37.796875 25.390625 
z
M 35.203125 72.90625 
L 47.609375 72.90625 
L 47.609375 25.390625 
L 58.015625 25.390625 
L 58.015625 17.1875 
L 47.609375 17.1875 
L 47.609375 0 
L 37.796875 0 
L 37.796875 17.1875 
L 4.890625 17.1875 
L 4.890625 26.703125 
z
" id="DejaVuSans-52"/>
      </defs>
      <g transform="translate(252.98711 322.182437)scale(0.1 -0.1)">
       <use xlink:href="#DejaVuSans-50"/>
       <use x="63.623047" xlink:href="#DejaVuSans-52"/>
      </g>
     </g>
    </g>
    <g id="xtick_6">
     <g id="line2d_11">
      <path clip-path="url(#p05374c4a21)" d="M 305.728831 307.584 
L 305.728831 41.472 
" style="fill:none;stroke:#b0b0b0;stroke-linecap:square;stroke-width:0.8;"/>
     </g>
     <g id="line2d_12">
      <g>
       <use style="stroke:#000000;stroke-width:0.8;" x="305.728831" xlink:href="#m4155cf2127" y="307.584"/>
      </g>
     </g>
     <g id="text_6">
      <!-- 25 -->
      <defs>
       <path d="M 10.796875 72.90625 
L 49.515625 72.90625 
L 49.515625 64.59375 
L 19.828125 64.59375 
L 19.828125 46.734375 
Q 21.96875 47.46875 24.109375 47.828125 
Q 26.265625 48.1875 28.421875 48.1875 
Q 40.625 48.1875 47.75 41.5 
Q 54.890625 34.8125 54.890625 23.390625 
Q 54.890625 11.625 47.5625 5.09375 
Q 40.234375 -1.421875 26.90625 -1.421875 
Q 22.3125 -1.421875 17.546875 -0.640625 
Q 12.796875 0.140625 7.71875 1.703125 
L 7.71875 11.625 
Q 12.109375 9.234375 16.796875 8.0625 
Q 21.484375 6.890625 26.703125 6.890625 
Q 35.15625 6.890625 40.078125 11.328125 
Q 45.015625 15.765625 45.015625 23.390625 
Q 45.015625 31 40.078125 35.4375 
Q 35.15625 39.890625 26.703125 39.890625 
Q 22.75 39.890625 18.8125 39.015625 
Q 14.890625 38.140625 10.796875 36.28125 
z
" id="DejaVuSans-53"/>
      </defs>
      <g transform="translate(299.366331 322.182437)scale(0.1 -0.1)">
       <use xlink:href="#DejaVuSans-50"/>
       <use x="63.623047" xlink:href="#DejaVuSans-53"/>
      </g>
     </g>
    </g>
    <g id="xtick_7">
     <g id="line2d_13">
      <path clip-path="url(#p05374c4a21)" d="M 352.108052 307.584 
L 352.108052 41.472 
" style="fill:none;stroke:#b0b0b0;stroke-linecap:square;stroke-width:0.8;"/>
     </g>
     <g id="line2d_14">
      <g>
       <use style="stroke:#000000;stroke-width:0.8;" x="352.108052" xlink:href="#m4155cf2127" y="307.584"/>
      </g>
     </g>
     <g id="text_7">
      <!-- 26 -->
      <defs>
       <path d="M 33.015625 40.375 
Q 26.375 40.375 22.484375 35.828125 
Q 18.609375 31.296875 18.609375 23.390625 
Q 18.609375 15.53125 22.484375 10.953125 
Q 26.375 6.390625 33.015625 6.390625 
Q 39.65625 6.390625 43.53125 10.953125 
Q 47.40625 15.53125 47.40625 23.390625 
Q 47.40625 31.296875 43.53125 35.828125 
Q 39.65625 40.375 33.015625 40.375 
z
M 52.59375 71.296875 
L 52.59375 62.3125 
Q 48.875 64.0625 45.09375 64.984375 
Q 41.3125 65.921875 37.59375 65.921875 
Q 27.828125 65.921875 22.671875 59.328125 
Q 17.53125 52.734375 16.796875 39.40625 
Q 19.671875 43.65625 24.015625 45.921875 
Q 28.375 48.1875 33.59375 48.1875 
Q 44.578125 48.1875 50.953125 41.515625 
Q 57.328125 34.859375 57.328125 23.390625 
Q 57.328125 12.15625 50.6875 5.359375 
Q 44.046875 -1.421875 33.015625 -1.421875 
Q 20.359375 -1.421875 13.671875 8.265625 
Q 6.984375 17.96875 6.984375 36.375 
Q 6.984375 53.65625 15.1875 63.9375 
Q 23.390625 74.21875 37.203125 74.21875 
Q 40.921875 74.21875 44.703125 73.484375 
Q 48.484375 72.75 52.59375 71.296875 
z
" id="DejaVuSans-54"/>
      </defs>
      <g transform="translate(345.745552 322.182437)scale(0.1 -0.1)">
       <use xlink:href="#DejaVuSans-50"/>
       <use x="63.623047" xlink:href="#DejaVuSans-54"/>
      </g>
     </g>
    </g>
    <g id="xtick_8">
     <g id="line2d_15">
      <path clip-path="url(#p05374c4a21)" d="M 398.487273 307.584 
L 398.487273 41.472 
" style="fill:none;stroke:#b0b0b0;stroke-linecap:square;stroke-width:0.8;"/>
     </g>
     <g id="line2d_16">
      <g>
       <use style="stroke:#000000;stroke-width:0.8;" x="398.487273" xlink:href="#m4155cf2127" y="307.584"/>
      </g>
     </g>
     <g id="text_8">
      <!-- 27 -->
      <defs>
       <path d="M 8.203125 72.90625 
L 55.078125 72.90625 
L 55.078125 68.703125 
L 28.609375 0 
L 18.3125 0 
L 43.21875 64.59375 
L 8.203125 64.59375 
z
" id="DejaVuSans-55"/>
      </defs>
      <g transform="translate(392.124773 322.182437)scale(0.1 -0.1)">
       <use xlink:href="#DejaVuSans-50"/>
       <use x="63.623047" xlink:href="#DejaVuSans-55"/>
      </g>
     </g>
    </g>
    <g id="text_9">
     <!-- log₂(Problem Size) -->
     <defs>
      <path d="M 9.421875 75.984375 
L 18.40625 75.984375 
L 18.40625 0 
L 9.421875 0 
z
" id="DejaVuSans-108"/>
      <path d="M 30.609375 48.390625 
Q 23.390625 48.390625 19.1875 42.75 
Q 14.984375 37.109375 14.984375 27.296875 
Q 14.984375 17.484375 19.15625 11.84375 
Q 23.34375 6.203125 30.609375 6.203125 
Q 37.796875 6.203125 41.984375 11.859375 
Q 46.1875 17.53125 46.1875 27.296875 
Q 46.1875 37.015625 41.984375 42.703125 
Q 37.796875 48.390625 30.609375 48.390625 
z
M 30.609375 56 
Q 42.328125 56 49.015625 48.375 
Q 55.71875 40.765625 55.71875 27.296875 
Q 55.71875 13.875 49.015625 6.21875 
Q 42.328125 -1.421875 30.609375 -1.421875 
Q 18.84375 -1.421875 12.171875 6.21875 
Q 5.515625 13.875 5.515625 27.296875 
Q 5.515625 40.765625 12.171875 48.375 
Q 18.84375 56 30.609375 56 
z
" id="DejaVuSans-111"/>
      <path d="M 45.40625 27.984375 
Q 45.40625 37.75 41.375 43.109375 
Q 37.359375 48.484375 30.078125 48.484375 
Q 22.859375 48.484375 18.828125 43.109375 
Q 14.796875 37.75 14.796875 27.984375 
Q 14.796875 18.265625 18.828125 12.890625 
Q 22.859375 7.515625 30.078125 7.515625 
Q 37.359375 7.515625 41.375 12.890625 
Q 45.40625 18.265625 45.40625 27.984375 
z
M 54.390625 6.78125 
Q 54.390625 -7.171875 48.1875 -13.984375 
Q 42 -20.796875 29.203125 -20.796875 
Q 24.46875 -20.796875 20.265625 -20.09375 
Q 16.0625 -19.390625 12.109375 -17.921875 
L 12.109375 -9.1875 
Q 16.0625 -11.328125 19.921875 -12.34375 
Q 23.78125 -13.375 27.78125 -13.375 
Q 36.625 -13.375 41.015625 -8.765625 
Q 45.40625 -4.15625 45.40625 5.171875 
L 45.40625 9.625 
Q 42.625 4.78125 38.28125 2.390625 
Q 33.9375 0 27.875 0 
Q 17.828125 0 11.671875 7.65625 
Q 5.515625 15.328125 5.515625 27.984375 
Q 5.515625 40.671875 11.671875 48.328125 
Q 17.828125 56 27.875 56 
Q 33.9375 56 38.28125 53.609375 
Q 42.625 51.21875 45.40625 46.390625 
L 45.40625 54.6875 
L 54.390625 54.6875 
z
" id="DejaVuSans-103"/>
      <path d="M 13.09375 5.1875 
L 33.796875 5.1875 
L 33.796875 -0.375 
L 4.59375 -0.375 
L 4.59375 4.984375 
Q 6.25 6.5 9.328125 9.234375 
Q 26.125 24.125 26.125 28.71875 
Q 26.125 31.9375 23.578125 33.90625 
Q 21.046875 35.890625 16.890625 35.890625 
Q 14.359375 35.890625 11.375 35.03125 
Q 8.40625 34.1875 4.890625 32.484375 
L 4.890625 38.484375 
Q 8.640625 39.859375 11.890625 40.53125 
Q 15.140625 41.21875 17.921875 41.21875 
Q 25 41.21875 29.25 38 
Q 33.5 34.78125 33.5 29.5 
Q 33.5 22.71875 17.328125 8.84375 
Q 14.59375 6.5 13.09375 5.1875 
z
" id="DejaVuSans-8322"/>
      <path d="M 31 75.875 
Q 24.46875 64.65625 21.28125 53.65625 
Q 18.109375 42.671875 18.109375 31.390625 
Q 18.109375 20.125 21.3125 9.0625 
Q 24.515625 -2 31 -13.1875 
L 23.1875 -13.1875 
Q 15.875 -1.703125 12.234375 9.375 
Q 8.59375 20.453125 8.59375 31.390625 
Q 8.59375 42.28125 12.203125 53.3125 
Q 15.828125 64.359375 23.1875 75.875 
z
" id="DejaVuSans-40"/>
      <path d="M 19.671875 64.796875 
L 19.671875 37.40625 
L 32.078125 37.40625 
Q 38.96875 37.40625 42.71875 40.96875 
Q 46.484375 44.53125 46.484375 51.125 
Q 46.484375 57.671875 42.71875 61.234375 
Q 38.96875 64.796875 32.078125 64.796875 
z
M 9.8125 72.90625 
L 32.078125 72.90625 
Q 44.34375 72.90625 50.609375 67.359375 
Q 56.890625 61.8125 56.890625 51.125 
Q 56.890625 40.328125 50.609375 34.8125 
Q 44.34375 29.296875 32.078125 29.296875 
L 19.671875 29.296875 
L 19.671875 0 
L 9.8125 0 
z
" id="DejaVuSans-80"/>
      <path d="M 41.109375 46.296875 
Q 39.59375 47.171875 37.8125 47.578125 
Q 36.03125 48 33.890625 48 
Q 26.265625 48 22.1875 43.046875 
Q 18.109375 38.09375 18.109375 28.8125 
L 18.109375 0 
L 9.078125 0 
L 9.078125 54.6875 
L 18.109375 54.6875 
L 18.109375 46.1875 
Q 20.953125 51.171875 25.484375 53.578125 
Q 30.03125 56 36.53125 56 
Q 37.453125 56 38.578125 55.875 
Q 39.703125 55.765625 41.0625 55.515625 
z
" id="DejaVuSans-114"/>
      <path d="M 48.6875 27.296875 
Q 48.6875 37.203125 44.609375 42.84375 
Q 40.53125 48.484375 33.40625 48.484375 
Q 26.265625 48.484375 22.1875 42.84375 
Q 18.109375 37.203125 18.109375 27.296875 
Q 18.109375 17.390625 22.1875 11.75 
Q 26.265625 6.109375 33.40625 6.109375 
Q 40.53125 6.109375 44.609375 11.75 
Q 48.6875 17.390625 48.6875 27.296875 
z
M 18.109375 46.390625 
Q 20.953125 51.265625 25.265625 53.625 
Q 29.59375 56 35.59375 56 
Q 45.5625 56 51.78125 48.09375 
Q 58.015625 40.1875 58.015625 27.296875 
Q 58.015625 14.40625 51.78125 6.484375 
Q 45.5625 -1.421875 35.59375 -1.421875 
Q 29.59375 -1.421875 25.265625 0.953125 
Q 20.953125 3.328125 18.109375 8.203125 
L 18.109375 0 
L 9.078125 0 
L 9.078125 75.984375 
L 18.109375 75.984375 
z
" id="DejaVuSans-98"/>
      <path d="M 56.203125 29.59375 
L 56.203125 25.203125 
L 14.890625 25.203125 
Q 15.484375 15.921875 20.484375 11.0625 
Q 25.484375 6.203125 34.421875 6.203125 
Q 39.59375 6.203125 44.453125 7.46875 
Q 49.3125 8.734375 54.109375 11.28125 
L 54.109375 2.78125 
Q 49.265625 0.734375 44.1875 -0.34375 
Q 39.109375 -1.421875 33.890625 -1.421875 
Q 20.796875 -1.421875 13.15625 6.1875 
Q 5.515625 13.8125 5.515625 26.8125 
Q 5.515625 40.234375 12.765625 48.109375 
Q 20.015625 56 32.328125 56 
Q 43.359375 56 49.78125 48.890625 
Q 56.203125 41.796875 56.203125 29.59375 
z
M 47.21875 32.234375 
Q 47.125 39.59375 43.09375 43.984375 
Q 39.0625 48.390625 32.421875 48.390625 
Q 24.90625 48.390625 20.390625 44.140625 
Q 15.875 39.890625 15.1875 32.171875 
z
" id="DejaVuSans-101"/>
      <path d="M 52 44.1875 
Q 55.375 50.25 60.0625 53.125 
Q 64.75 56 71.09375 56 
Q 79.640625 56 84.28125 50.015625 
Q 88.921875 44.046875 88.921875 33.015625 
L 88.921875 0 
L 79.890625 0 
L 79.890625 32.71875 
Q 79.890625 40.578125 77.09375 44.375 
Q 74.3125 48.1875 68.609375 48.1875 
Q 61.625 48.1875 57.5625 43.546875 
Q 53.515625 38.921875 53.515625 30.90625 
L 53.515625 0 
L 44.484375 0 
L 44.484375 32.71875 
Q 44.484375 40.625 41.703125 44.40625 
Q 38.921875 48.1875 33.109375 48.1875 
Q 26.21875 48.1875 22.15625 43.53125 
Q 18.109375 38.875 18.109375 30.90625 
L 18.109375 0 
L 9.078125 0 
L 9.078125 54.6875 
L 18.109375 54.6875 
L 18.109375 46.1875 
Q 21.1875 51.21875 25.484375 53.609375 
Q 29.78125 56 35.6875 56 
Q 41.65625 56 45.828125 52.96875 
Q 50 49.953125 52 44.1875 
z
" id="DejaVuSans-109"/>
      <path id="DejaVuSans-32"/>
      <path d="M 53.515625 70.515625 
L 53.515625 60.890625 
Q 47.90625 63.578125 42.921875 64.890625 
Q 37.9375 66.21875 33.296875 66.21875 
Q 25.25 66.21875 20.875 63.09375 
Q 16.5 59.96875 16.5 54.203125 
Q 16.5 49.359375 19.40625 46.890625 
Q 22.3125 44.4375 30.421875 42.921875 
L 36.375 41.703125 
Q 47.40625 39.59375 52.65625 34.296875 
Q 57.90625 29 57.90625 20.125 
Q 57.90625 9.515625 50.796875 4.046875 
Q 43.703125 -1.421875 29.984375 -1.421875 
Q 24.8125 -1.421875 18.96875 -0.25 
Q 13.140625 0.921875 6.890625 3.21875 
L 6.890625 13.375 
Q 12.890625 10.015625 18.65625 8.296875 
Q 24.421875 6.59375 29.984375 6.59375 
Q 38.421875 6.59375 43.015625 9.90625 
Q 47.609375 13.234375 47.609375 19.390625 
Q 47.609375 24.75 44.3125 27.78125 
Q 41.015625 30.8125 33.5 32.328125 
L 27.484375 33.5 
Q 16.453125 35.6875 11.515625 40.375 
Q 6.59375 45.0625 6.59375 53.421875 
Q 6.59375 63.09375 13.40625 68.65625 
Q 20.21875 74.21875 32.171875 74.21875 
Q 37.3125 74.21875 42.625 73.28125 
Q 47.953125 72.359375 53.515625 70.515625 
z
" id="DejaVuSans-83"/>
      <path d="M 9.421875 54.6875 
L 18.40625 54.6875 
L 18.40625 0 
L 9.421875 0 
z
M 9.421875 75.984375 
L 18.40625 75.984375 
L 18.40625 64.59375 
L 9.421875 64.59375 
z
" id="DejaVuSans-105"/>
      <path d="M 5.515625 54.6875 
L 48.1875 54.6875 
L 48.1875 46.484375 
L 14.40625 7.171875 
L 48.1875 7.171875 
L 48.1875 0 
L 4.296875 0 
L 4.296875 8.203125 
L 38.09375 47.515625 
L 5.515625 47.515625 
z
" id="DejaVuSans-122"/>
      <path d="M 8.015625 75.875 
L 15.828125 75.875 
Q 23.140625 64.359375 26.78125 53.3125 
Q 30.421875 42.28125 30.421875 31.390625 
Q 30.421875 20.453125 26.78125 9.375 
Q 23.140625 -1.703125 15.828125 -13.1875 
L 8.015625 -13.1875 
Q 14.5 -2 17.703125 9.0625 
Q 20.90625 20.125 20.90625 31.390625 
Q 20.90625 42.671875 17.703125 53.65625 
Q 14.5 64.65625 8.015625 75.875 
z
" id="DejaVuSans-41"/>
     </defs>
     <g transform="translate(190.140469 335.860562)scale(0.1 -0.1)">
      <use xlink:href="#DejaVuSans-108"/>
      <use x="27.783203" xlink:href="#DejaVuSans-111"/>
      <use x="88.964844" xlink:href="#DejaVuSans-103"/>
      <use x="152.441406" xlink:href="#DejaVuSans-8322"/>
      <use x="192.529297" xlink:href="#DejaVuSans-40"/>
      <use x="231.542969" xlink:href="#DejaVuSans-80"/>
      <use x="291.830078" xlink:href="#DejaVuSans-114"/>
      <use x="332.912109" xlink:href="#DejaVuSans-111"/>
      <use x="394.09375" xlink:href="#DejaVuSans-98"/>
      <use x="457.570312" xlink:href="#DejaVuSans-108"/>
      <use x="485.353516" xlink:href="#DejaVuSans-101"/>
      <use x="546.876953" xlink:href="#DejaVuSans-109"/>
      <use x="644.289062" xlink:href="#DejaVuSans-32"/>
      <use x="676.076172" xlink:href="#DejaVuSans-83"/>
      <use x="739.552734" xlink:href="#DejaVuSans-105"/>
      <use x="767.335938" xlink:href="#DejaVuSans-122"/>
      <use x="819.826172" xlink:href="#DejaVuSans-101"/>
      <use x="881.349609" xlink:href="#DejaVuSans-41"/>
     </g>
    </g>
   </g>
   <g id="matplotlib.axis_2">
    <g id="ytick_1">
     <g id="line2d_17">
      <path clip-path="url(#p05374c4a21)" d="M 57.6 295.511462 
L 414.72 295.511462 
" style="fill:none;stroke:#b0b0b0;stroke-linecap:square;stroke-width:0.8;"/>
     </g>
     <g id="line2d_18">
      <defs>
       <path d="M 0 0 
L -3.5 0 
" id="mcb3eeafc31" style="stroke:#000000;stroke-width:0.8;"/>
      </defs>
      <g>
       <use style="stroke:#000000;stroke-width:0.8;" x="57.6" xlink:href="#mcb3eeafc31" y="295.511462"/>
      </g>
     </g>
     <g id="text_10">
      <!-- 0 -->
      <g transform="translate(44.2375 299.31068)scale(0.1 -0.1)">
       <use xlink:href="#DejaVuSans-48"/>
      </g>
     </g>
    </g>
    <g id="ytick_2">
     <g id="line2d_19">
      <path clip-path="url(#p05374c4a21)" d="M 57.6 262.13995 
L 414.72 262.13995 
" style="fill:none;stroke:#b0b0b0;stroke-linecap:square;stroke-width:0.8;"/>
     </g>
     <g id="line2d_20">
      <g>
       <use style="stroke:#000000;stroke-width:0.8;" x="57.6" xlink:href="#mcb3eeafc31" y="262.13995"/>
      </g>
     </g>
     <g id="text_11">
      <!-- 200 -->
      <g transform="translate(31.5125 265.939168)scale(0.1 -0.1)">
       <use xlink:href="#DejaVuSans-50"/>
       <use x="63.623047" xlink:href="#DejaVuSans-48"/>
       <use x="127.246094" xlink:href="#DejaVuSans-48"/>
      </g>
     </g>
    </g>
    <g id="ytick_3">
     <g id="line2d_21">
      <path clip-path="url(#p05374c4a21)" d="M 57.6 228.768438 
L 414.72 228.768438 
" style="fill:none;stroke:#b0b0b0;stroke-linecap:square;stroke-width:0.8;"/>
     </g>
     <g id="line2d_22">
      <g>
       <use style="stroke:#000000;stroke-width:0.8;" x="57.6" xlink:href="#mcb3eeafc31" y="228.768438"/>
      </g>
     </g>
     <g id="text_12">
      <!-- 400 -->
      <g transform="translate(31.5125 232.567656)scale(0.1 -0.1)">
       <use xlink:href="#DejaVuSans-52"/>
       <use x="63.623047" xlink:href="#DejaVuSans-48"/>
       <use x="127.246094" xlink:href="#DejaVuSans-48"/>
      </g>
     </g>
    </g>
    <g id="ytick_4">
     <g id="line2d_23">
      <path clip-path="url(#p05374c4a21)" d="M 57.6 195.396926 
L 414.72 195.396926 
" style="fill:none;stroke:#b0b0b0;stroke-linecap:square;stroke-width:0.8;"/>
     </g>
     <g id="line2d_24">
      <g>
       <use style="stroke:#000000;stroke-width:0.8;" x="57.6" xlink:href="#mcb3eeafc31" y="195.396926"/>
      </g>
     </g>
     <g id="text_13">
      <!-- 600 -->
      <g transform="translate(31.5125 199.196144)scale(0.1 -0.1)">
       <use xlink:href="#DejaVuSans-54"/>
       <use x="63.623047" xlink:href="#DejaVuSans-48"/>
       <use x="127.246094" xlink:href="#DejaVuSans-48"/>
      </g>
     </g>
    </g>
    <g id="ytick_5">
     <g id="line2d_25">
      <path clip-path="url(#p05374c4a21)" d="M 57.6 162.025414 
L 414.72 162.025414 
" style="fill:none;stroke:#b0b0b0;stroke-linecap:square;stroke-width:0.8;"/>
     </g>
     <g id="line2d_26">
      <g>
       <use style="stroke:#000000;stroke-width:0.8;" x="57.6" xlink:href="#mcb3eeafc31" y="162.025414"/>
      </g>
     </g>
     <g id="text_14">
      <!-- 800 -->
      <defs>
       <path d="M 31.78125 34.625 
Q 24.75 34.625 20.71875 30.859375 
Q 16.703125 27.09375 16.703125 20.515625 
Q 16.703125 13.921875 20.71875 10.15625 
Q 24.75 6.390625 31.78125 6.390625 
Q 38.8125 6.390625 42.859375 10.171875 
Q 46.921875 13.96875 46.921875 20.515625 
Q 46.921875 27.09375 42.890625 30.859375 
Q 38.875 34.625 31.78125 34.625 
z
M 21.921875 38.8125 
Q 15.578125 40.375 12.03125 44.71875 
Q 8.5 49.078125 8.5 55.328125 
Q 8.5 64.0625 14.71875 69.140625 
Q 20.953125 74.21875 31.78125 74.21875 
Q 42.671875 74.21875 48.875 69.140625 
Q 55.078125 64.0625 55.078125 55.328125 
Q 55.078125 49.078125 51.53125 44.71875 
Q 48 40.375 41.703125 38.8125 
Q 48.828125 37.15625 52.796875 32.3125 
Q 56.78125 27.484375 56.78125 20.515625 
Q 56.78125 9.90625 50.3125 4.234375 
Q 43.84375 -1.421875 31.78125 -1.421875 
Q 19.734375 -1.421875 13.25 4.234375 
Q 6.78125 9.90625 6.78125 20.515625 
Q 6.78125 27.484375 10.78125 32.3125 
Q 14.796875 37.15625 21.921875 38.8125 
z
M 18.3125 54.390625 
Q 18.3125 48.734375 21.84375 45.5625 
Q 25.390625 42.390625 31.78125 42.390625 
Q 38.140625 42.390625 41.71875 45.5625 
Q 45.3125 48.734375 45.3125 54.390625 
Q 45.3125 60.0625 41.71875 63.234375 
Q 38.140625 66.40625 31.78125 66.40625 
Q 25.390625 66.40625 21.84375 63.234375 
Q 18.3125 60.0625 18.3125 54.390625 
z
" id="DejaVuSans-56"/>
      </defs>
      <g transform="translate(31.5125 165.824633)scale(0.1 -0.1)">
       <use xlink:href="#DejaVuSans-56"/>
       <use x="63.623047" xlink:href="#DejaVuSans-48"/>
       <use x="127.246094" xlink:href="#DejaVuSans-48"/>
      </g>
     </g>
    </g>
    <g id="ytick_6">
     <g id="line2d_27">
      <path clip-path="url(#p05374c4a21)" d="M 57.6 128.653902 
L 414.72 128.653902 
" style="fill:none;stroke:#b0b0b0;stroke-linecap:square;stroke-width:0.8;"/>
     </g>
     <g id="line2d_28">
      <g>
       <use style="stroke:#000000;stroke-width:0.8;" x="57.6" xlink:href="#mcb3eeafc31" y="128.653902"/>
      </g>
     </g>
     <g id="text_15">
      <!-- 1000 -->
      <g transform="translate(25.15 132.453121)scale(0.1 -0.1)">
       <use xlink:href="#DejaVuSans-49"/>
       <use x="63.623047" xlink:href="#DejaVuSans-48"/>
       <use x="127.246094" xlink:href="#DejaVuSans-48"/>
       <use x="190.869141" xlink:href="#DejaVuSans-48"/>
      </g>
     </g>
    </g>
    <g id="ytick_7">
     <g id="line2d_29">
      <path clip-path="url(#p05374c4a21)" d="M 57.6 95.28239 
L 414.72 95.28239 
" style="fill:none;stroke:#b0b0b0;stroke-linecap:square;stroke-width:0.8;"/>
     </g>
     <g id="line2d_30">
      <g>
       <use style="stroke:#000000;stroke-width:0.8;" x="57.6" xlink:href="#mcb3eeafc31" y="95.28239"/>
      </g>
     </g>
     <g id="text_16">
      <!-- 1200 -->
      <g transform="translate(25.15 99.081609)scale(0.1 -0.1)">
       <use xlink:href="#DejaVuSans-49"/>
       <use x="63.623047" xlink:href="#DejaVuSans-50"/>
       <use x="127.246094" xlink:href="#DejaVuSans-48"/>
       <use x="190.869141" xlink:href="#DejaVuSans-48"/>
      </g>
     </g>
    </g>
    <g id="ytick_8">
     <g id="line2d_31">
      <path clip-path="url(#p05374c4a21)" d="M 57.6 61.910878 
L 414.72 61.910878 
" style="fill:none;stroke:#b0b0b0;stroke-linecap:square;stroke-width:0.8;"/>
     </g>
     <g id="line2d_32">
      <g>
       <use style="stroke:#000000;stroke-width:0.8;" x="57.6" xlink:href="#mcb3eeafc31" y="61.910878"/>
      </g>
     </g>
     <g id="text_17">
      <!-- 1400 -->
      <g transform="translate(25.15 65.710097)scale(0.1 -0.1)">
       <use xlink:href="#DejaVuSans-49"/>
       <use x="63.623047" xlink:href="#DejaVuSans-52"/>
       <use x="127.246094" xlink:href="#DejaVuSans-48"/>
       <use x="190.869141" xlink:href="#DejaVuSans-48"/>
      </g>
     </g>
    </g>
    <g id="text_18">
     <!-- Runtime (ms) -->
     <defs>
      <path d="M 44.390625 34.1875 
Q 47.5625 33.109375 50.5625 29.59375 
Q 53.5625 26.078125 56.59375 19.921875 
L 66.609375 0 
L 56 0 
L 46.6875 18.703125 
Q 43.0625 26.03125 39.671875 28.421875 
Q 36.28125 30.8125 30.421875 30.8125 
L 19.671875 30.8125 
L 19.671875 0 
L 9.8125 0 
L 9.8125 72.90625 
L 32.078125 72.90625 
Q 44.578125 72.90625 50.734375 67.671875 
Q 56.890625 62.453125 56.890625 51.90625 
Q 56.890625 45.015625 53.6875 40.46875 
Q 50.484375 35.9375 44.390625 34.1875 
z
M 19.671875 64.796875 
L 19.671875 38.921875 
L 32.078125 38.921875 
Q 39.203125 38.921875 42.84375 42.21875 
Q 46.484375 45.515625 46.484375 51.90625 
Q 46.484375 58.296875 42.84375 61.546875 
Q 39.203125 64.796875 32.078125 64.796875 
z
" id="DejaVuSans-82"/>
      <path d="M 8.5 21.578125 
L 8.5 54.6875 
L 17.484375 54.6875 
L 17.484375 21.921875 
Q 17.484375 14.15625 20.5 10.265625 
Q 23.53125 6.390625 29.59375 6.390625 
Q 36.859375 6.390625 41.078125 11.03125 
Q 45.3125 15.671875 45.3125 23.6875 
L 45.3125 54.6875 
L 54.296875 54.6875 
L 54.296875 0 
L 45.3125 0 
L 45.3125 8.40625 
Q 42.046875 3.421875 37.71875 1 
Q 33.40625 -1.421875 27.6875 -1.421875 
Q 18.265625 -1.421875 13.375 4.4375 
Q 8.5 10.296875 8.5 21.578125 
z
M 31.109375 56 
z
" id="DejaVuSans-117"/>
      <path d="M 54.890625 33.015625 
L 54.890625 0 
L 45.90625 0 
L 45.90625 32.71875 
Q 45.90625 40.484375 42.875 44.328125 
Q 39.84375 48.1875 33.796875 48.1875 
Q 26.515625 48.1875 22.3125 43.546875 
Q 18.109375 38.921875 18.109375 30.90625 
L 18.109375 0 
L 9.078125 0 
L 9.078125 54.6875 
L 18.109375 54.6875 
L 18.109375 46.1875 
Q 21.34375 51.125 25.703125 53.5625 
Q 30.078125 56 35.796875 56 
Q 45.21875 56 50.046875 50.171875 
Q 54.890625 44.34375 54.890625 33.015625 
z
" id="DejaVuSans-110"/>
      <path d="M 18.3125 70.21875 
L 18.3125 54.6875 
L 36.8125 54.6875 
L 36.8125 47.703125 
L 18.3125 47.703125 
L 18.3125 18.015625 
Q 18.3125 11.328125 20.140625 9.421875 
Q 21.96875 7.515625 27.59375 7.515625 
L 36.8125 7.515625 
L 36.8125 0 
L 27.59375 0 
Q 17.1875 0 13.234375 3.875 
Q 9.28125 7.765625 9.28125 18.015625 
L 9.28125 47.703125 
L 2.6875 47.703125 
L 2.6875 54.6875 
L 9.28125 54.6875 
L 9.28125 70.21875 
z
" id="DejaVuSans-116"/>
      <path d="M 44.28125 53.078125 
L 44.28125 44.578125 
Q 40.484375 46.53125 36.375 47.5 
Q 32.28125 48.484375 27.875 48.484375 
Q 21.1875 48.484375 17.84375 46.4375 
Q 14.5 44.390625 14.5 40.28125 
Q 14.5 37.15625 16.890625 35.375 
Q 19.28125 33.59375 26.515625 31.984375 
L 29.59375 31.296875 
Q 39.15625 29.25 43.1875 25.515625 
Q 47.21875 21.78125 47.21875 15.09375 
Q 47.21875 7.46875 41.1875 3.015625 
Q 35.15625 -1.421875 24.609375 -1.421875 
Q 20.21875 -1.421875 15.453125 -0.5625 
Q 10.6875 0.296875 5.421875 2 
L 5.421875 11.28125 
Q 10.40625 8.6875 15.234375 7.390625 
Q 20.0625 6.109375 24.8125 6.109375 
Q 31.15625 6.109375 34.5625 8.28125 
Q 37.984375 10.453125 37.984375 14.40625 
Q 37.984375 18.0625 35.515625 20.015625 
Q 33.0625 21.96875 24.703125 23.78125 
L 21.578125 24.515625 
Q 13.234375 26.265625 9.515625 29.90625 
Q 5.8125 33.546875 5.8125 39.890625 
Q 5.8125 47.609375 11.28125 51.796875 
Q 16.75 56 26.8125 56 
Q 31.78125 56 36.171875 55.265625 
Q 40.578125 54.546875 44.28125 53.078125 
z
" id="DejaVuSans-115"/>
     </defs>
     <g transform="translate(19.070312 208.598312)rotate(-90)scale(0.1 -0.1)">
      <use xlink:href="#DejaVuSans-82"/>
      <use x="69.419922" xlink:href="#DejaVuSans-117"/>
      <use x="132.798828" xlink:href="#DejaVuSans-110"/>
      <use x="196.177734" xlink:href="#DejaVuSans-116"/>
      <use x="235.386719" xlink:href="#DejaVuSans-105"/>
      <use x="263.169922" xlink:href="#DejaVuSans-109"/>
      <use x="360.582031" xlink:href="#DejaVuSans-101"/>
      <use x="422.105469" xlink:href="#DejaVuSans-32"/>
      <use x="453.892578" xlink:href="#DejaVuSans-40"/>
      <use x="492.90625" xlink:href="#DejaVuSans-109"/>
      <use x="590.318359" xlink:href="#DejaVuSans-115"/>
      <use x="642.417969" xlink:href="#DejaVuSans-41"/>
     </g>
    </g>
   </g>
   <g id="line2d_33">
    <path clip-path="url(#p05374c4a21)" d="M 73.832727 292.17431 
L 120.211948 290.505735 
L 166.591169 285.500008 
L 212.97039 277.15713 
L 259.34961 260.471374 
L 305.728831 235.44274 
L 352.108052 175.374019 
L 398.487273 53.568 
" style="fill:none;stroke:#000000;stroke-linecap:square;stroke-width:1.5;"/>
    <defs>
     <path d="M -3 0 
L 3 0 
M 0 3 
L 0 -3 
" id="m477837cb98" style="stroke:#000000;"/>
    </defs>
    <g clip-path="url(#p05374c4a21)">
     <use style="stroke:#000000;" x="73.832727" xlink:href="#m477837cb98" y="292.17431"/>
     <use style="stroke:#000000;" x="120.211948" xlink:href="#m477837cb98" y="290.505735"/>
     <use style="stroke:#000000;" x="166.591169" xlink:href="#m477837cb98" y="285.500008"/>
     <use style="stroke:#000000;" x="212.97039" xlink:href="#m477837cb98" y="277.15713"/>
     <use style="stroke:#000000;" x="259.34961" xlink:href="#m477837cb98" y="260.471374"/>
     <use style="stroke:#000000;" x="305.728831" xlink:href="#m477837cb98" y="235.44274"/>
     <use style="stroke:#000000;" x="352.108052" xlink:href="#m477837cb98" y="175.374019"/>
     <use style="stroke:#000000;" x="398.487273" xlink:href="#m477837cb98" y="53.568"/>
    </g>
   </g>
   <g id="line2d_34">
    <path clip-path="url(#p05374c4a21)" d="M 73.832727 295.168563 
L 120.211948 294.88742 
L 166.591169 294.26278 
L 212.97039 293.018348 
L 259.34961 290.530659 
L 305.728831 285.554684 
L 352.108052 275.61653 
L 398.487273 255.723938 
" style="fill:none;stroke:#1f77b4;stroke-linecap:square;stroke-width:1.5;"/>
    <defs>
     <path d="M -3 0 
L 3 0 
M 0 3 
L 0 -3 
" id="m86f16c68a3" style="stroke:#1f77b4;"/>
    </defs>
    <g clip-path="url(#p05374c4a21)">
     <use style="fill:#1f77b4;stroke:#1f77b4;" x="73.832727" xlink:href="#m86f16c68a3" y="295.168563"/>
     <use style="fill:#1f77b4;stroke:#1f77b4;" x="120.211948" xlink:href="#m86f16c68a3" y="294.88742"/>
     <use style="fill:#1f77b4;stroke:#1f77b4;" x="166.591169" xlink:href="#m86f16c68a3" y="294.26278"/>
     <use style="fill:#1f77b4;stroke:#1f77b4;" x="212.97039" xlink:href="#m86f16c68a3" y="293.018348"/>
     <use style="fill:#1f77b4;stroke:#1f77b4;" x="259.34961" xlink:href="#m86f16c68a3" y="290.530659"/>
     <use style="fill:#1f77b4;stroke:#1f77b4;" x="305.728831" xlink:href="#m86f16c68a3" y="285.554684"/>
     <use style="fill:#1f77b4;stroke:#1f77b4;" x="352.108052" xlink:href="#m86f16c68a3" y="275.61653"/>
     <use style="fill:#1f77b4;stroke:#1f77b4;" x="398.487273" xlink:href="#m86f16c68a3" y="255.723938"/>
    </g>
   </g>
   <g id="line2d_35">
    <path clip-path="url(#p05374c4a21)" d="M 73.832727 295.353067 
L 120.211948 295.198624 
L 166.591169 294.88986 
L 212.97039 294.265743 
L 259.34961 293.020105 
L 305.728831 290.547089 
L 352.108052 285.59836 
L 398.487273 275.649928 
" style="fill:none;stroke:#ff7f0e;stroke-linecap:square;stroke-width:1.5;"/>
    <defs>
     <path d="M -3 0 
L 3 0 
M 0 3 
L 0 -3 
" id="ma20b7fd5d7" style="stroke:#ff7f0e;"/>
    </defs>
    <g clip-path="url(#p05374c4a21)">
     <use style="fill:#ff7f0e;stroke:#ff7f0e;" x="73.832727" xlink:href="#ma20b7fd5d7" y="295.353067"/>
     <use style="fill:#ff7f0e;stroke:#ff7f0e;" x="120.211948" xlink:href="#ma20b7fd5d7" y="295.198624"/>
     <use style="fill:#ff7f0e;stroke:#ff7f0e;" x="166.591169" xlink:href="#ma20b7fd5d7" y="294.88986"/>
     <use style="fill:#ff7f0e;stroke:#ff7f0e;" x="212.97039" xlink:href="#ma20b7fd5d7" y="294.265743"/>
     <use style="fill:#ff7f0e;stroke:#ff7f0e;" x="259.34961" xlink:href="#ma20b7fd5d7" y="293.020105"/>
     <use style="fill:#ff7f0e;stroke:#ff7f0e;" x="305.728831" xlink:href="#ma20b7fd5d7" y="290.547089"/>
     <use style="fill:#ff7f0e;stroke:#ff7f0e;" x="352.108052" xlink:href="#ma20b7fd5d7" y="285.59836"/>
     <use style="fill:#ff7f0e;stroke:#ff7f0e;" x="398.487273" xlink:href="#ma20b7fd5d7" y="275.649928"/>
    </g>
   </g>
   <g id="line2d_36">
    <path clip-path="url(#p05374c4a21)" d="M 73.832727 295.430195 
L 120.211948 295.35083 
L 166.591169 295.193738 
L 212.97039 294.875048 
L 259.34961 294.234593 
L 305.728831 292.971751 
L 352.108052 290.465977 
L 398.487273 285.3845 
" style="fill:none;stroke:#2ca02c;stroke-linecap:square;stroke-width:1.5;"/>
    <defs>
     <path d="M -3 0 
L 3 0 
M 0 3 
L 0 -3 
" id="mb6629a1142" style="stroke:#2ca02c;"/>
    </defs>
    <g clip-path="url(#p05374c4a21)">
     <use style="fill:#2ca02c;stroke:#2ca02c;" x="73.832727" xlink:href="#mb6629a1142" y="295.430195"/>
     <use style="fill:#2ca02c;stroke:#2ca02c;" x="120.211948" xlink:href="#mb6629a1142" y="295.35083"/>
     <use style="fill:#2ca02c;stroke:#2ca02c;" x="166.591169" xlink:href="#mb6629a1142" y="295.193738"/>
     <use style="fill:#2ca02c;stroke:#2ca02c;" x="212.97039" xlink:href="#mb6629a1142" y="294.875048"/>
     <use style="fill:#2ca02c;stroke:#2ca02c;" x="259.34961" xlink:href="#mb6629a1142" y="294.234593"/>
     <use style="fill:#2ca02c;stroke:#2ca02c;" x="305.728831" xlink:href="#mb6629a1142" y="292.971751"/>
     <use style="fill:#2ca02c;stroke:#2ca02c;" x="352.108052" xlink:href="#mb6629a1142" y="290.465977"/>
     <use style="fill:#2ca02c;stroke:#2ca02c;" x="398.487273" xlink:href="#mb6629a1142" y="285.3845"/>
    </g>
   </g>
   <g id="line2d_37">
    <path clip-path="url(#p05374c4a21)" d="M 73.832727 295.466423 
L 120.211948 295.425513 
L 166.591169 295.340728 
L 212.97039 295.17135 
L 259.34961 294.833481 
L 305.728831 294.161458 
L 352.108052 292.820233 
L 398.487273 290.128599 
" style="fill:none;stroke:#d62728;stroke-linecap:square;stroke-width:1.5;"/>
    <defs>
     <path d="M -3 0 
L 3 0 
M 0 3 
L 0 -3 
" id="ma38cb64d66" style="stroke:#d62728;"/>
    </defs>
    <g clip-path="url(#p05374c4a21)">
     <use style="fill:#d62728;stroke:#d62728;" x="73.832727" xlink:href="#ma38cb64d66" y="295.466423"/>
     <use style="fill:#d62728;stroke:#d62728;" x="120.211948" xlink:href="#ma38cb64d66" y="295.425513"/>
     <use style="fill:#d62728;stroke:#d62728;" x="166.591169" xlink:href="#ma38cb64d66" y="295.340728"/>
     <use style="fill:#d62728;stroke:#d62728;" x="212.97039" xlink:href="#ma38cb64d66" y="295.17135"/>
     <use style="fill:#d62728;stroke:#d62728;" x="259.34961" xlink:href="#ma38cb64d66" y="294.833481"/>
     <use style="fill:#d62728;stroke:#d62728;" x="305.728831" xlink:href="#ma38cb64d66" y="294.161458"/>
     <use style="fill:#d62728;stroke:#d62728;" x="352.108052" xlink:href="#ma38cb64d66" y="292.820233"/>
     <use style="fill:#d62728;stroke:#d62728;" x="398.487273" xlink:href="#ma38cb64d66" y="290.128599"/>
    </g>
   </g>
   <g id="line2d_38">
    <path clip-path="url(#p05374c4a21)" d="M 73.832727 295.481833 
L 120.211948 295.454767 
L 166.591169 295.400476 
L 212.97039 295.293949 
L 259.34961 295.079714 
L 305.728831 294.65195 
L 352.108052 293.794868 
L 398.487273 292.083775 
" style="fill:none;stroke:#9467bd;stroke-linecap:square;stroke-width:1.5;"/>
    <defs>
     <path d="M -3 0 
L 3 0 
M 0 3 
L 0 -3 
" id="m5cec333dfb" style="stroke:#9467bd;"/>
    </defs>
    <g clip-path="url(#p05374c4a21)">
     <use style="fill:#9467bd;stroke:#9467bd;" x="73.832727" xlink:href="#m5cec333dfb" y="295.481833"/>
     <use style="fill:#9467bd;stroke:#9467bd;" x="120.211948" xlink:href="#m5cec333dfb" y="295.454767"/>
     <use style="fill:#9467bd;stroke:#9467bd;" x="166.591169" xlink:href="#m5cec333dfb" y="295.400476"/>
     <use style="fill:#9467bd;stroke:#9467bd;" x="212.97039" xlink:href="#m5cec333dfb" y="295.293949"/>
     <use style="fill:#9467bd;stroke:#9467bd;" x="259.34961" xlink:href="#m5cec333dfb" y="295.079714"/>
     <use style="fill:#9467bd;stroke:#9467bd;" x="305.728831" xlink:href="#m5cec333dfb" y="294.65195"/>
     <use style="fill:#9467bd;stroke:#9467bd;" x="352.108052" xlink:href="#m5cec333dfb" y="293.794868"/>
     <use style="fill:#9467bd;stroke:#9467bd;" x="398.487273" xlink:href="#m5cec333dfb" y="292.083775"/>
    </g>
   </g>
   <g id="line2d_39">
    <path clip-path="url(#p05374c4a21)" d="M 73.832727 295.486959 
L 120.211948 295.462963 
L 166.591169 295.418011 
L 212.97039 295.325836 
L 259.34961 295.143985 
L 305.728831 294.77936 
L 352.108052 294.052998 
L 398.487273 292.596991 
" style="fill:none;stroke:#8c564b;stroke-linecap:square;stroke-width:1.5;"/>
    <defs>
     <path d="M -3 0 
L 3 0 
M 0 3 
L 0 -3 
" id="mfa8b17ba92" style="stroke:#8c564b;"/>
    </defs>
    <g clip-path="url(#p05374c4a21)">
     <use style="fill:#8c564b;stroke:#8c564b;" x="73.832727" xlink:href="#mfa8b17ba92" y="295.486959"/>
     <use style="fill:#8c564b;stroke:#8c564b;" x="120.211948" xlink:href="#mfa8b17ba92" y="295.462963"/>
     <use style="fill:#8c564b;stroke:#8c564b;" x="166.591169" xlink:href="#mfa8b17ba92" y="295.418011"/>
     <use style="fill:#8c564b;stroke:#8c564b;" x="212.97039" xlink:href="#mfa8b17ba92" y="295.325836"/>
     <use style="fill:#8c564b;stroke:#8c564b;" x="259.34961" xlink:href="#mfa8b17ba92" y="295.143985"/>
     <use style="fill:#8c564b;stroke:#8c564b;" x="305.728831" xlink:href="#mfa8b17ba92" y="294.77936"/>
     <use style="fill:#8c564b;stroke:#8c564b;" x="352.108052" xlink:href="#mfa8b17ba92" y="294.052998"/>
     <use style="fill:#8c564b;stroke:#8c564b;" x="398.487273" xlink:href="#mfa8b17ba92" y="292.596991"/>
    </g>
   </g>
   <g id="line2d_40">
    <path clip-path="url(#p05374c4a21)" d="M 73.832727 295.487605 
L 120.211948 295.465793 
L 166.591169 295.423382 
L 212.97039 295.336974 
L 259.34961 295.164622 
L 305.728831 294.819283 
L 352.108052 294.130879 
L 398.487273 292.748989 
" style="fill:none;stroke:#e377c2;stroke-linecap:square;stroke-width:1.5;"/>
    <defs>
     <path d="M -3 0 
L 3 0 
M 0 3 
L 0 -3 
" id="m51396227b1" style="stroke:#e377c2;"/>
    </defs>
    <g clip-path="url(#p05374c4a21)">
     <use style="fill:#e377c2;stroke:#e377c2;" x="73.832727" xlink:href="#m51396227b1" y="295.487605"/>
     <use style="fill:#e377c2;stroke:#e377c2;" x="120.211948" xlink:href="#m51396227b1" y="295.465793"/>
     <use style="fill:#e377c2;stroke:#e377c2;" x="166.591169" xlink:href="#m51396227b1" y="295.423382"/>
     <use style="fill:#e377c2;stroke:#e377c2;" x="212.97039" xlink:href="#m51396227b1" y="295.336974"/>
     <use style="fill:#e377c2;stroke:#e377c2;" x="259.34961" xlink:href="#m51396227b1" y="295.164622"/>
     <use style="fill:#e377c2;stroke:#e377c2;" x="305.728831" xlink:href="#m51396227b1" y="294.819283"/>
     <use style="fill:#e377c2;stroke:#e377c2;" x="352.108052" xlink:href="#m51396227b1" y="294.130879"/>
     <use style="fill:#e377c2;stroke:#e377c2;" x="398.487273" xlink:href="#m51396227b1" y="292.748989"/>
    </g>
   </g>
   <g id="line2d_41">
    <path clip-path="url(#p05374c4a21)" d="M 73.832727 295.486783 
L 120.211948 295.466557 
L 166.591169 295.423201 
L 212.97039 295.336605 
L 259.34961 295.164227 
L 305.728831 294.818418 
L 352.108052 294.128397 
L 398.487273 292.746122 
" style="fill:none;stroke:#7f7f7f;stroke-linecap:square;stroke-width:1.5;"/>
    <defs>
     <path d="M -3 0 
L 3 0 
M 0 3 
L 0 -3 
" id="m40f2dda58a" style="stroke:#7f7f7f;"/>
    </defs>
    <g clip-path="url(#p05374c4a21)">
     <use style="fill:#7f7f7f;stroke:#7f7f7f;" x="73.832727" xlink:href="#m40f2dda58a" y="295.486783"/>
     <use style="fill:#7f7f7f;stroke:#7f7f7f;" x="120.211948" xlink:href="#m40f2dda58a" y="295.466557"/>
     <use style="fill:#7f7f7f;stroke:#7f7f7f;" x="166.591169" xlink:href="#m40f2dda58a" y="295.423201"/>
     <use style="fill:#7f7f7f;stroke:#7f7f7f;" x="212.97039" xlink:href="#m40f2dda58a" y="295.336605"/>
     <use style="fill:#7f7f7f;stroke:#7f7f7f;" x="259.34961" xlink:href="#m40f2dda58a" y="295.164227"/>
     <use style="fill:#7f7f7f;stroke:#7f7f7f;" x="305.728831" xlink:href="#m40f2dda58a" y="294.818418"/>
     <use style="fill:#7f7f7f;stroke:#7f7f7f;" x="352.108052" xlink:href="#m40f2dda58a" y="294.128397"/>
     <use style="fill:#7f7f7f;stroke:#7f7f7f;" x="398.487273" xlink:href="#m40f2dda58a" y="292.746122"/>
    </g>
   </g>
   <g id="line2d_42">
    <path clip-path="url(#p05374c4a21)" d="M 73.832727 295.486927 
L 120.211948 295.46559 
L 166.591169 295.422821 
L 212.97039 295.335949 
L 259.34961 295.162716 
L 305.728831 294.816373 
L 352.108052 294.123041 
L 398.487273 292.732864 
" style="fill:none;stroke:#bcbd22;stroke-linecap:square;stroke-width:1.5;"/>
    <defs>
     <path d="M -3 0 
L 3 0 
M 0 3 
L 0 -3 
" id="ma9c067f032" style="stroke:#bcbd22;"/>
    </defs>
    <g clip-path="url(#p05374c4a21)">
     <use style="fill:#bcbd22;stroke:#bcbd22;" x="73.832727" xlink:href="#ma9c067f032" y="295.486927"/>
     <use style="fill:#bcbd22;stroke:#bcbd22;" x="120.211948" xlink:href="#ma9c067f032" y="295.46559"/>
     <use style="fill:#bcbd22;stroke:#bcbd22;" x="166.591169" xlink:href="#ma9c067f032" y="295.422821"/>
     <use style="fill:#bcbd22;stroke:#bcbd22;" x="212.97039" xlink:href="#ma9c067f032" y="295.335949"/>
     <use style="fill:#bcbd22;stroke:#bcbd22;" x="259.34961" xlink:href="#ma9c067f032" y="295.162716"/>
     <use style="fill:#bcbd22;stroke:#bcbd22;" x="305.728831" xlink:href="#ma9c067f032" y="294.816373"/>
     <use style="fill:#bcbd22;stroke:#bcbd22;" x="352.108052" xlink:href="#ma9c067f032" y="294.123041"/>
     <use style="fill:#bcbd22;stroke:#bcbd22;" x="398.487273" xlink:href="#ma9c067f032" y="292.732864"/>
    </g>
   </g>
   <g id="line2d_43">
    <path clip-path="url(#p05374c4a21)" d="M 73.832727 295.488 
L 120.211948 295.466114 
L 166.591169 295.421364 
L 212.97039 295.334737 
L 259.34961 295.160703 
L 305.728831 294.812187 
L 352.108052 294.116538 
L 398.487273 292.718912 
" style="fill:none;stroke:#17becf;stroke-linecap:square;stroke-width:1.5;"/>
    <defs>
     <path d="M -3 0 
L 3 0 
M 0 3 
L 0 -3 
" id="m4353c7ac94" style="stroke:#17becf;"/>
    </defs>
    <g clip-path="url(#p05374c4a21)">
     <use style="fill:#17becf;stroke:#17becf;" x="73.832727" xlink:href="#m4353c7ac94" y="295.488"/>
     <use style="fill:#17becf;stroke:#17becf;" x="120.211948" xlink:href="#m4353c7ac94" y="295.466114"/>
     <use style="fill:#17becf;stroke:#17becf;" x="166.591169" xlink:href="#m4353c7ac94" y="295.421364"/>
     <use style="fill:#17becf;stroke:#17becf;" x="212.97039" xlink:href="#m4353c7ac94" y="295.334737"/>
     <use style="fill:#17becf;stroke:#17becf;" x="259.34961" xlink:href="#m4353c7ac94" y="295.160703"/>
     <use style="fill:#17becf;stroke:#17becf;" x="305.728831" xlink:href="#m4353c7ac94" y="294.812187"/>
     <use style="fill:#17becf;stroke:#17becf;" x="352.108052" xlink:href="#m4353c7ac94" y="294.116538"/>
     <use style="fill:#17becf;stroke:#17becf;" x="398.487273" xlink:href="#m4353c7ac94" y="292.718912"/>
    </g>
   </g>
   <g id="patch_3">
    <path d="M 57.6 307.584 
L 57.6 41.472 
" style="fill:none;stroke:#000000;stroke-linecap:square;stroke-linejoin:miter;stroke-width:0.8;"/>
   </g>
   <g id="patch_4">
    <path d="M 414.72 307.584 
L 414.72 41.472 
" style="fill:none;stroke:#000000;stroke-linecap:square;stroke-linejoin:miter;stroke-width:0.8;"/>
   </g>
   <g id="patch_5">
    <path d="M 57.6 307.584 
L 414.72 307.584 
" style="fill:none;stroke:#000000;stroke-linecap:square;stroke-linejoin:miter;stroke-width:0.8;"/>
   </g>
   <g id="patch_6">
    <path d="M 57.6 41.472 
L 414.72 41.472 
" style="fill:none;stroke:#000000;stroke-linecap:square;stroke-linejoin:miter;stroke-width:0.8;"/>
   </g>
   <g id="legend_1">
    <g id="patch_7">
     <path d="M 64.6 210.931375 
L 165.620313 210.931375 
Q 167.620313 210.931375 167.620313 208.931375 
L 167.620313 48.472 
Q 167.620313 46.472 165.620313 46.472 
L 64.6 46.472 
Q 62.6 46.472 62.6 48.472 
L 62.6 208.931375 
Q 62.6 210.931375 64.6 210.931375 
z
" style="fill:#ffffff;opacity:0.8;stroke:#cccccc;stroke-linejoin:miter;"/>
    </g>
    <g id="line2d_44">
     <path d="M 66.6 54.570437 
L 86.6 54.570437 
" style="fill:none;stroke:#000000;stroke-linecap:square;stroke-width:1.5;"/>
    </g>
    <g id="line2d_45">
     <g>
      <use style="stroke:#000000;" x="76.6" xlink:href="#m477837cb98" y="54.570437"/>
     </g>
    </g>
    <g id="text_19">
     <!-- Serial Code -->
     <defs>
      <path d="M 34.28125 27.484375 
Q 23.390625 27.484375 19.1875 25 
Q 14.984375 22.515625 14.984375 16.5 
Q 14.984375 11.71875 18.140625 8.90625 
Q 21.296875 6.109375 26.703125 6.109375 
Q 34.1875 6.109375 38.703125 11.40625 
Q 43.21875 16.703125 43.21875 25.484375 
L 43.21875 27.484375 
z
M 52.203125 31.203125 
L 52.203125 0 
L 43.21875 0 
L 43.21875 8.296875 
Q 40.140625 3.328125 35.546875 0.953125 
Q 30.953125 -1.421875 24.3125 -1.421875 
Q 15.921875 -1.421875 10.953125 3.296875 
Q 6 8.015625 6 15.921875 
Q 6 25.140625 12.171875 29.828125 
Q 18.359375 34.515625 30.609375 34.515625 
L 43.21875 34.515625 
L 43.21875 35.40625 
Q 43.21875 41.609375 39.140625 45 
Q 35.0625 48.390625 27.6875 48.390625 
Q 23 48.390625 18.546875 47.265625 
Q 14.109375 46.140625 10.015625 43.890625 
L 10.015625 52.203125 
Q 14.9375 54.109375 19.578125 55.046875 
Q 24.21875 56 28.609375 56 
Q 40.484375 56 46.34375 49.84375 
Q 52.203125 43.703125 52.203125 31.203125 
z
" id="DejaVuSans-97"/>
      <path d="M 64.40625 67.28125 
L 64.40625 56.890625 
Q 59.421875 61.53125 53.78125 63.8125 
Q 48.140625 66.109375 41.796875 66.109375 
Q 29.296875 66.109375 22.65625 58.46875 
Q 16.015625 50.828125 16.015625 36.375 
Q 16.015625 21.96875 22.65625 14.328125 
Q 29.296875 6.6875 41.796875 6.6875 
Q 48.140625 6.6875 53.78125 8.984375 
Q 59.421875 11.28125 64.40625 15.921875 
L 64.40625 5.609375 
Q 59.234375 2.09375 53.4375 0.328125 
Q 47.65625 -1.421875 41.21875 -1.421875 
Q 24.65625 -1.421875 15.125 8.703125 
Q 5.609375 18.84375 5.609375 36.375 
Q 5.609375 53.953125 15.125 64.078125 
Q 24.65625 74.21875 41.21875 74.21875 
Q 47.75 74.21875 53.53125 72.484375 
Q 59.328125 70.75 64.40625 67.28125 
z
" id="DejaVuSans-67"/>
      <path d="M 45.40625 46.390625 
L 45.40625 75.984375 
L 54.390625 75.984375 
L 54.390625 0 
L 45.40625 0 
L 45.40625 8.203125 
Q 42.578125 3.328125 38.25 0.953125 
Q 33.9375 -1.421875 27.875 -1.421875 
Q 17.96875 -1.421875 11.734375 6.484375 
Q 5.515625 14.40625 5.515625 27.296875 
Q 5.515625 40.1875 11.734375 48.09375 
Q 17.96875 56 27.875 56 
Q 33.9375 56 38.25 53.625 
Q 42.578125 51.265625 45.40625 46.390625 
z
M 14.796875 27.296875 
Q 14.796875 17.390625 18.875 11.75 
Q 22.953125 6.109375 30.078125 6.109375 
Q 37.203125 6.109375 41.296875 11.75 
Q 45.40625 17.390625 45.40625 27.296875 
Q 45.40625 37.203125 41.296875 42.84375 
Q 37.203125 48.484375 30.078125 48.484375 
Q 22.953125 48.484375 18.875 42.84375 
Q 14.796875 37.203125 14.796875 27.296875 
z
" id="DejaVuSans-100"/>
     </defs>
     <g transform="translate(94.6 58.070437)scale(0.1 -0.1)">
      <use xlink:href="#DejaVuSans-83"/>
      <use x="63.476562" xlink:href="#DejaVuSans-101"/>
      <use x="125" xlink:href="#DejaVuSans-114"/>
      <use x="166.113281" xlink:href="#DejaVuSans-105"/>
      <use x="193.896484" xlink:href="#DejaVuSans-97"/>
      <use x="255.175781" xlink:href="#DejaVuSans-108"/>
      <use x="282.958984" xlink:href="#DejaVuSans-32"/>
      <use x="314.746094" xlink:href="#DejaVuSans-67"/>
      <use x="384.570312" xlink:href="#DejaVuSans-111"/>
      <use x="445.751953" xlink:href="#DejaVuSans-100"/>
      <use x="509.228516" xlink:href="#DejaVuSans-101"/>
     </g>
    </g>
    <g id="line2d_46">
     <path d="M 66.6 69.248562 
L 86.6 69.248562 
" style="fill:none;stroke:#1f77b4;stroke-linecap:square;stroke-width:1.5;"/>
    </g>
    <g id="line2d_47">
     <g>
      <use style="fill:#1f77b4;stroke:#1f77b4;" x="76.6" xlink:href="#m86f16c68a3" y="69.248562"/>
     </g>
    </g>
    <g id="text_20">
     <!-- 2 Threads -->
     <defs>
      <path d="M -0.296875 72.90625 
L 61.375 72.90625 
L 61.375 64.59375 
L 35.5 64.59375 
L 35.5 0 
L 25.59375 0 
L 25.59375 64.59375 
L -0.296875 64.59375 
z
" id="DejaVuSans-84"/>
      <path d="M 54.890625 33.015625 
L 54.890625 0 
L 45.90625 0 
L 45.90625 32.71875 
Q 45.90625 40.484375 42.875 44.328125 
Q 39.84375 48.1875 33.796875 48.1875 
Q 26.515625 48.1875 22.3125 43.546875 
Q 18.109375 38.921875 18.109375 30.90625 
L 18.109375 0 
L 9.078125 0 
L 9.078125 75.984375 
L 18.109375 75.984375 
L 18.109375 46.1875 
Q 21.34375 51.125 25.703125 53.5625 
Q 30.078125 56 35.796875 56 
Q 45.21875 56 50.046875 50.171875 
Q 54.890625 44.34375 54.890625 33.015625 
z
" id="DejaVuSans-104"/>
     </defs>
     <g transform="translate(94.6 72.748562)scale(0.1 -0.1)">
      <use xlink:href="#DejaVuSans-50"/>
      <use x="63.623047" xlink:href="#DejaVuSans-32"/>
      <use x="95.410156" xlink:href="#DejaVuSans-84"/>
      <use x="156.494141" xlink:href="#DejaVuSans-104"/>
      <use x="219.873047" xlink:href="#DejaVuSans-114"/>
      <use x="260.955078" xlink:href="#DejaVuSans-101"/>
      <use x="322.478516" xlink:href="#DejaVuSans-97"/>
      <use x="383.757812" xlink:href="#DejaVuSans-100"/>
      <use x="447.234375" xlink:href="#DejaVuSans-115"/>
     </g>
    </g>
    <g id="line2d_48">
     <path d="M 66.6 83.926688 
L 86.6 83.926688 
" style="fill:none;stroke:#ff7f0e;stroke-linecap:square;stroke-width:1.5;"/>
    </g>
    <g id="line2d_49">
     <g>
      <use style="fill:#ff7f0e;stroke:#ff7f0e;" x="76.6" xlink:href="#ma20b7fd5d7" y="83.926688"/>
     </g>
    </g>
    <g id="text_21">
     <!-- 4 Threads -->
     <g transform="translate(94.6 87.426688)scale(0.1 -0.1)">
      <use xlink:href="#DejaVuSans-52"/>
      <use x="63.623047" xlink:href="#DejaVuSans-32"/>
      <use x="95.410156" xlink:href="#DejaVuSans-84"/>
      <use x="156.494141" xlink:href="#DejaVuSans-104"/>
      <use x="219.873047" xlink:href="#DejaVuSans-114"/>
      <use x="260.955078" xlink:href="#DejaVuSans-101"/>
      <use x="322.478516" xlink:href="#DejaVuSans-97"/>
      <use x="383.757812" xlink:href="#DejaVuSans-100"/>
      <use x="447.234375" xlink:href="#DejaVuSans-115"/>
     </g>
    </g>
    <g id="line2d_50">
     <path d="M 66.6 98.604812 
L 86.6 98.604812 
" style="fill:none;stroke:#2ca02c;stroke-linecap:square;stroke-width:1.5;"/>
    </g>
    <g id="line2d_51">
     <g>
      <use style="fill:#2ca02c;stroke:#2ca02c;" x="76.6" xlink:href="#mb6629a1142" y="98.604812"/>
     </g>
    </g>
    <g id="text_22">
     <!-- 8 Threads -->
     <g transform="translate(94.6 102.104812)scale(0.1 -0.1)">
      <use xlink:href="#DejaVuSans-56"/>
      <use x="63.623047" xlink:href="#DejaVuSans-32"/>
      <use x="95.410156" xlink:href="#DejaVuSans-84"/>
      <use x="156.494141" xlink:href="#DejaVuSans-104"/>
      <use x="219.873047" xlink:href="#DejaVuSans-114"/>
      <use x="260.955078" xlink:href="#DejaVuSans-101"/>
      <use x="322.478516" xlink:href="#DejaVuSans-97"/>
      <use x="383.757812" xlink:href="#DejaVuSans-100"/>
      <use x="447.234375" xlink:href="#DejaVuSans-115"/>
     </g>
    </g>
    <g id="line2d_52">
     <path d="M 66.6 113.282938 
L 86.6 113.282938 
" style="fill:none;stroke:#d62728;stroke-linecap:square;stroke-width:1.5;"/>
    </g>
    <g id="line2d_53">
     <g>
      <use style="fill:#d62728;stroke:#d62728;" x="76.6" xlink:href="#ma38cb64d66" y="113.282938"/>
     </g>
    </g>
    <g id="text_23">
     <!-- 16 Threads -->
     <g transform="translate(94.6 116.782938)scale(0.1 -0.1)">
      <use xlink:href="#DejaVuSans-49"/>
      <use x="63.623047" xlink:href="#DejaVuSans-54"/>
      <use x="127.246094" xlink:href="#DejaVuSans-32"/>
      <use x="159.033203" xlink:href="#DejaVuSans-84"/>
      <use x="220.117188" xlink:href="#DejaVuSans-104"/>
      <use x="283.496094" xlink:href="#DejaVuSans-114"/>
      <use x="324.578125" xlink:href="#DejaVuSans-101"/>
      <use x="386.101562" xlink:href="#DejaVuSans-97"/>
      <use x="447.380859" xlink:href="#DejaVuSans-100"/>
      <use x="510.857422" xlink:href="#DejaVuSans-115"/>
     </g>
    </g>
    <g id="line2d_54">
     <path d="M 66.6 127.961062 
L 86.6 127.961062 
" style="fill:none;stroke:#9467bd;stroke-linecap:square;stroke-width:1.5;"/>
    </g>
    <g id="line2d_55">
     <g>
      <use style="fill:#9467bd;stroke:#9467bd;" x="76.6" xlink:href="#m5cec333dfb" y="127.961062"/>
     </g>
    </g>
    <g id="text_24">
     <!-- 32 Threads -->
     <g transform="translate(94.6 131.461062)scale(0.1 -0.1)">
      <use xlink:href="#DejaVuSans-51"/>
      <use x="63.623047" xlink:href="#DejaVuSans-50"/>
      <use x="127.246094" xlink:href="#DejaVuSans-32"/>
      <use x="159.033203" xlink:href="#DejaVuSans-84"/>
      <use x="220.117188" xlink:href="#DejaVuSans-104"/>
      <use x="283.496094" xlink:href="#DejaVuSans-114"/>
      <use x="324.578125" xlink:href="#DejaVuSans-101"/>
      <use x="386.101562" xlink:href="#DejaVuSans-97"/>
      <use x="447.380859" xlink:href="#DejaVuSans-100"/>
      <use x="510.857422" xlink:href="#DejaVuSans-115"/>
     </g>
    </g>
    <g id="line2d_56">
     <path d="M 66.6 142.639187 
L 86.6 142.639187 
" style="fill:none;stroke:#8c564b;stroke-linecap:square;stroke-width:1.5;"/>
    </g>
    <g id="line2d_57">
     <g>
      <use style="fill:#8c564b;stroke:#8c564b;" x="76.6" xlink:href="#mfa8b17ba92" y="142.639187"/>
     </g>
    </g>
    <g id="text_25">
     <!-- 64 Threads -->
     <g transform="translate(94.6 146.139187)scale(0.1 -0.1)">
      <use xlink:href="#DejaVuSans-54"/>
      <use x="63.623047" xlink:href="#DejaVuSans-52"/>
      <use x="127.246094" xlink:href="#DejaVuSans-32"/>
      <use x="159.033203" xlink:href="#DejaVuSans-84"/>
      <use x="220.117188" xlink:href="#DejaVuSans-104"/>
      <use x="283.496094" xlink:href="#DejaVuSans-114"/>
      <use x="324.578125" xlink:href="#DejaVuSans-101"/>
      <use x="386.101562" xlink:href="#DejaVuSans-97"/>
      <use x="447.380859" xlink:href="#DejaVuSans-100"/>
      <use x="510.857422" xlink:href="#DejaVuSans-115"/>
     </g>
    </g>
    <g id="line2d_58">
     <path d="M 66.6 157.317312 
L 86.6 157.317312 
" style="fill:none;stroke:#e377c2;stroke-linecap:square;stroke-width:1.5;"/>
    </g>
    <g id="line2d_59">
     <g>
      <use style="fill:#e377c2;stroke:#e377c2;" x="76.6" xlink:href="#m51396227b1" y="157.317312"/>
     </g>
    </g>
    <g id="text_26">
     <!-- 128 Threads -->
     <g transform="translate(94.6 160.817312)scale(0.1 -0.1)">
      <use xlink:href="#DejaVuSans-49"/>
      <use x="63.623047" xlink:href="#DejaVuSans-50"/>
      <use x="127.246094" xlink:href="#DejaVuSans-56"/>
      <use x="190.869141" xlink:href="#DejaVuSans-32"/>
      <use x="222.65625" xlink:href="#DejaVuSans-84"/>
      <use x="283.740234" xlink:href="#DejaVuSans-104"/>
      <use x="347.119141" xlink:href="#DejaVuSans-114"/>
      <use x="388.201172" xlink:href="#DejaVuSans-101"/>
      <use x="449.724609" xlink:href="#DejaVuSans-97"/>
      <use x="511.003906" xlink:href="#DejaVuSans-100"/>
      <use x="574.480469" xlink:href="#DejaVuSans-115"/>
     </g>
    </g>
    <g id="line2d_60">
     <path d="M 66.6 171.995437 
L 86.6 171.995437 
" style="fill:none;stroke:#7f7f7f;stroke-linecap:square;stroke-width:1.5;"/>
    </g>
    <g id="line2d_61">
     <g>
      <use style="fill:#7f7f7f;stroke:#7f7f7f;" x="76.6" xlink:href="#m40f2dda58a" y="171.995437"/>
     </g>
    </g>
    <g id="text_27">
     <!-- 256 Threads -->
     <g transform="translate(94.6 175.495437)scale(0.1 -0.1)">
      <use xlink:href="#DejaVuSans-50"/>
      <use x="63.623047" xlink:href="#DejaVuSans-53"/>
      <use x="127.246094" xlink:href="#DejaVuSans-54"/>
      <use x="190.869141" xlink:href="#DejaVuSans-32"/>
      <use x="222.65625" xlink:href="#DejaVuSans-84"/>
      <use x="283.740234" xlink:href="#DejaVuSans-104"/>
      <use x="347.119141" xlink:href="#DejaVuSans-114"/>
      <use x="388.201172" xlink:href="#DejaVuSans-101"/>
      <use x="449.724609" xlink:href="#DejaVuSans-97"/>
      <use x="511.003906" xlink:href="#DejaVuSans-100"/>
      <use x="574.480469" xlink:href="#DejaVuSans-115"/>
     </g>
    </g>
    <g id="line2d_62">
     <path d="M 66.6 186.673562 
L 86.6 186.673562 
" style="fill:none;stroke:#bcbd22;stroke-linecap:square;stroke-width:1.5;"/>
    </g>
    <g id="line2d_63">
     <g>
      <use style="fill:#bcbd22;stroke:#bcbd22;" x="76.6" xlink:href="#ma9c067f032" y="186.673562"/>
     </g>
    </g>
    <g id="text_28">
     <!-- 512 Threads -->
     <g transform="translate(94.6 190.173562)scale(0.1 -0.1)">
      <use xlink:href="#DejaVuSans-53"/>
      <use x="63.623047" xlink:href="#DejaVuSans-49"/>
      <use x="127.246094" xlink:href="#DejaVuSans-50"/>
      <use x="190.869141" xlink:href="#DejaVuSans-32"/>
      <use x="222.65625" xlink:href="#DejaVuSans-84"/>
      <use x="283.740234" xlink:href="#DejaVuSans-104"/>
      <use x="347.119141" xlink:href="#DejaVuSans-114"/>
      <use x="388.201172" xlink:href="#DejaVuSans-101"/>
      <use x="449.724609" xlink:href="#DejaVuSans-97"/>
      <use x="511.003906" xlink:href="#DejaVuSans-100"/>
      <use x="574.480469" xlink:href="#DejaVuSans-115"/>
     </g>
    </g>
    <g id="line2d_64">
     <path d="M 66.6 201.351687 
L 86.6 201.351687 
" style="fill:none;stroke:#17becf;stroke-linecap:square;stroke-width:1.5;"/>
    </g>
    <g id="line2d_65">
     <g>
      <use style="fill:#17becf;stroke:#17becf;" x="76.6" xlink:href="#m4353c7ac94" y="201.351687"/>
     </g>
    </g>
    <g id="text_29">
     <!-- 1024 Threads -->
     <g transform="translate(94.6 204.851687)scale(0.1 -0.1)">
      <use xlink:href="#DejaVuSans-49"/>
      <use x="63.623047" xlink:href="#DejaVuSans-48"/>
      <use x="127.246094" xlink:href="#DejaVuSans-50"/>
      <use x="190.869141" xlink:href="#DejaVuSans-52"/>
      <use x="254.492188" xlink:href="#DejaVuSans-32"/>
      <use x="286.279297" xlink:href="#DejaVuSans-84"/>
      <use x="347.363281" xlink:href="#DejaVuSans-104"/>
      <use x="410.742188" xlink:href="#DejaVuSans-114"/>
      <use x="451.824219" xlink:href="#DejaVuSans-101"/>
      <use x="513.347656" xlink:href="#DejaVuSans-97"/>
      <use x="574.626953" xlink:href="#DejaVuSans-100"/>
      <use x="638.103516" xlink:href="#DejaVuSans-115"/>
     </g>
    </g>
   </g>
  </g>
 </g>
 <defs>
  <clipPath id="p05374c4a21">
   <rect height="266.112" width="357.12" x="57.6" y="41.472"/>
  </clipPath>
 </defs>
</svg>
